<svg xmlns="http://www.w3.org/2000/svg" width="960" height="22" viewBox="0 0 960 22" role="img" aria-label="">

  <defs>
    <linearGradient id="frameStroke" x1="0" y1="0" x2="0" y2="1">
      <stop offset="0%" stop-color="#4A9EFF" stop-opacity="0.88"/>
      <stop offset="50%" stop-color="#7DCFFF" stop-opacity="0.55"/>
      <stop offset="100%" stop-color="#4A9EFF" stop-opacity="0.45"/>
    </linearGradient>
    <linearGradient id="terminalTop" x1="0" y1="0" x2="1" y2="0">
      <stop offset="0%" stop-color="#11131D"/>
      <stop offset="55%" stop-color="#1A1E30"/>
      <stop offset="100%" stop-color="#11131D"/>
    </linearGradient>
    <radialGradient id="ambBlue" cx="18%" cy="6%" r="74%">
      <stop offset="0%" stop-color="#4A9EFF" stop-opacity="0.16"/>
      <stop offset="48%" stop-color="#0B0D13" stop-opacity="0"/>
    </radialGradient>
    <radialGradient id="ambCyan" cx="82%" cy="10%" r="70%">
      <stop offset="0%" stop-color="#7DCFFF" stop-opacity="0.12"/>
      <stop offset="58%" stop-color="#0B0D13" stop-opacity="0"/>
    </radialGradient>
  </defs>

  <!-- surface fill ONLY -->
  <path d="M 0,0 L 960,0 L 960,4 A 18,18 0 0 1 942,22 L 18,22 A 18,18 0 0 1 0,4 Z"
        fill="#0E0F18"/>
  <!-- frame stroke — left side + bottom arcs + bottom edge + right side ONLY (no top edge) -->
  <path d="M 0,0 L 0,4 A 18,18 0 0 0 18,22 L 942,22 A 18,18 0 0 0 960,4 L 960,0"
        fill="none" stroke="url(#frameStroke)" stroke-width="1.4"/>
</svg>
